<?xml version="1.0" encoding="UTF-8" standalone="no"?>
<!-- Created with Inkscape (http://www.inkscape.org/) -->

<svg
   xmlns:dc="http://purl.org/dc/elements/1.1/"
   xmlns:cc="http://creativecommons.org/ns#"
   xmlns:rdf="http://www.w3.org/1999/02/22-rdf-syntax-ns#"
   xmlns:svg="http://www.w3.org/2000/svg"
   xmlns="http://www.w3.org/2000/svg"
   xmlns:sodipodi="http://sodipodi.sourceforge.net/DTD/sodipodi-0.dtd"
   xmlns:inkscape="http://www.inkscape.org/namespaces/inkscape"
   width="233.1875"
   height="233.21875"
   viewBox="0 0 233.18751 233.21876"
   id="svg2"
   version="1.1"
   inkscape:version="0.48.2 r9819"
   sodipodi:docname="Blogger logo.svg">
  <title
     id="title4226">Blogger logo</title>
  <defs
     id="defs4" />
  <sodipodi:namedview
     id="base"
     pagecolor="#ffffff"
     bordercolor="#666666"
     borderopacity="1.0"
     inkscape:pageopacity="0.0"
     inkscape:pageshadow="2"
     inkscape:zoom="1.4"
     inkscape:cx="158.05603"
     inkscape:cy="53.065772"
     inkscape:document-units="px"
     inkscape:current-layer="layer1"
     showgrid="true"
     fit-margin-top="0"
     fit-margin-left="0"
     fit-margin-right="0"
     fit-margin-bottom="0"
     inkscape:window-width="1920"
     inkscape:window-height="1027"
     inkscape:window-x="-8"
     inkscape:window-y="-8"
     inkscape:window-maximized="1">
    <inkscape:grid
       type="xygrid"
       id="grid2989"
       empspacing="5"
       visible="true"
       enabled="true"
       snapvisiblegridlinesonly="true" />
  </sodipodi:namedview>
  <metadata
     id="metadata7">
    <rdf:RDF>
      <cc:Work
         rdf:about="">
        <dc:format>image/svg+xml</dc:format>
        <dc:type
           rdf:resource="http://purl.org/dc/dcmitype/StillImage" />
        <dc:title>Blogger logo</dc:title>
        <cc:license
           rdf:resource="http://creativecommons.org/licenses/by-sa/3.0/" />
        <dc:date>14/11/2016</dc:date>
        <dc:creator>
          <cc:Agent>
            <dc:title>Google, Inc.</dc:title>
          </cc:Agent>
        </dc:creator>
        <dc:publisher>
          <cc:Agent>
            <dc:title>CMetalCore</dc:title>
          </cc:Agent>
        </dc:publisher>
      </cc:Work>
      <cc:License
         rdf:about="http://creativecommons.org/licenses/by-sa/3.0/">
        <cc:permits
           rdf:resource="http://creativecommons.org/ns#Reproduction" />
        <cc:permits
           rdf:resource="http://creativecommons.org/ns#Distribution" />
        <cc:requires
           rdf:resource="http://creativecommons.org/ns#Notice" />
        <cc:requires
           rdf:resource="http://creativecommons.org/ns#Attribution" />
        <cc:permits
           rdf:resource="http://creativecommons.org/ns#DerivativeWorks" />
        <cc:requires
           rdf:resource="http://creativecommons.org/ns#ShareAlike" />
      </cc:License>
    </rdf:RDF>
  </metadata>
  <g
     inkscape:label="Capa 1"
     inkscape:groupmode="layer"
     id="layer1"
     transform="translate(586.30409,-117.02276)">
    <g
       id="g3784">
      <path
         style="fill:#d1cecc;fill-opacity:1"
         d="m -539.19793,322.92787 c -3.35945,-0.8837 -6.25827,-2.1837 -8.93186,-4.0056 -2.25693,-1.5379 -5.5556,-4.7174 -6.81008,-6.5637 -1.53213,-2.255 -3.29325,-6.1168 -4.01099,-8.795 -0.73207,-2.7319 -0.74393,-3.8198 -0.75707,-69.39501 -0.0131,-65.24411 0.002,-66.67877 0.71934,-69.48264 2.53752,-9.91559 10.39527,-17.45981 20.5296,-19.71045 2.91384,-0.64711 133.07979,-0.76029 136.22289,-0.11843 8.509,1.73759 15.19772,6.84619 19.06824,14.56362 3.07712,6.13545 2.80203,-0.61622 2.94296,72.23085 0.0897,46.34991 0.007,65.80856 -0.28883,68.23286 -1.38576,11.3442 -9.21068,20.1431 -20.47015,23.0183 -2.8802,0.7354 -3.88213,0.7459 -69.27512,0.7259 -63.2272,-0.019 -66.47448,-0.052 -68.93893,-0.7007 z"
         id="path4195"
         inkscape:connector-curvature="0" />
      <path
         style="fill:#ffffff"
         d="m -444.54866,289.26367 c 8.06475,-1.1001 14.38453,-4.3325 20.31333,-10.3896 4.289,-4.38181 6.97381,-9.12472 8.72838,-15.41921 0.7289,-2.6149 0.79001,-3.88807 0.92358,-19.24149 0.10081,-11.58796 0.0167,-17.01514 -0.28507,-18.38528 -0.43735,-1.98593 -1.67711,-3.83016 -3.09169,-4.59911 -0.4353,-0.23661 -3.22433,-0.53819 -6.19786,-0.67015 -4.98268,-0.22115 -5.54015,-0.31832 -7.11287,-1.24 -2.49468,-1.46198 -3.18172,-3.04069 -3.18854,-7.32677 -0.013,-8.1894 -3.42109,-15.79237 -10.15489,-22.65435 -4.79727,-4.8886 -10.14889,-8.19759 -16.25657,-10.05172 -1.46216,-0.44388 -4.7361,-0.59493 -15.70236,-0.72452 -17.20697,-0.20332 -21.0264,0.14939 -26.88427,2.48265 -10.79974,4.30168 -18.55957,13.36742 -21.39016,24.98992 -0.53164,2.18295 -0.63484,5.6815 -0.76042,25.77865 -0.15733,25.17748 0.0162,28.87467 1.58942,33.86414 1.2998,4.12233 2.61122,6.64844 5.31291,10.23388 5.14681,6.83036 12.86024,11.76336 20.57201,13.15646 3.66992,0.6631 48.94793,0.829 53.58507,0.1965 z"
         id="path4163"
         inkscape:connector-curvature="0" />
      <path
         style="fill:#d1cecc;fill-opacity:1"
         d="m -492.13533,220.14648 c -4.12294,-1.13646 -5.66347,-7.05179 -2.63323,-10.11109 1.93676,-1.95536 2.47218,-2.02981 14.59525,-2.02981 10.88336,0 11.24919,0.0238 12.84788,0.83129 2.31025,1.16711 3.3141,2.81263 3.3141,5.43252 0,2.36619 -0.94277,4.0244 -3.04564,5.35691 -1.12915,0.71549 -1.80391,0.76002 -12.46724,0.82265 -6.58448,0.0387 -11.82986,-0.0872 -12.61112,-0.30247 z"
         id="path4168"
         inkscape:connector-curvature="0" />
      <path
         style="fill:#d1cecc;fill-opacity:1"
         d="m -492.65191,259.95506 c -1.76975,-0.77113 -3.41783,-2.91327 -3.70266,-4.81263 -0.27132,-1.80929 0.63797,-4.29669 2.03179,-5.55809 1.75698,-1.59003 2.52807,-1.64307 24.13474,-1.66008 22.22636,-0.0174 22.11068,-0.0268 24.21831,1.94113 2.97683,2.77944 2.34894,7.7279 -1.23836,9.75964 l -3.68633,0.59948 -19.21312,0.22489 c -16.88306,0.19762 -21.66564,-0.1114 -22.54437,-0.49433 z"
         id="path4166"
         inkscape:connector-curvature="0" />
      <path
         sodipodi:type="arc"
         style="opacity:0.98999999;fill:none;stroke:#d1cecc;stroke-width:33.20000076;stroke-linecap:round;stroke-linejoin:round;stroke-miterlimit:4;stroke-opacity:1;stroke-dasharray:none;stroke-dashoffset:0"
         id="path2993"
         sodipodi:cx="90"
         sodipodi:cy="89.204285"
         sodipodi:rx="100"
         sodipodi:ry="100"
         d="m 190,89.204285 c 0,55.228475 -44.77153,99.999995 -100,99.999995 -55.228475,0 -100,-44.77152 -100,-99.999995 0,-55.228475 44.771525,-100 100,-100 55.22847,0 100,44.771525 100,100 z"
         transform="translate(-559.71034,144.42901)" />
    </g>
  </g>
</svg>
